<svg width="400" height="329" viewBox="0 0 400 329" fill="none" xmlns="http://www.w3.org/2000/svg">
<path d="M351.987 198.77C351.987 282.567 283.825 328.389 199.743 328.389C115.662 328.389 47.5 282.567 47.5 198.77C47.5 114.974 115.662 47.0431 199.743 47.0431C283.825 47.0431 351.987 114.974 351.987 198.77Z" fill="#FFA43A"/>
<path d="M343.555 46.6473C349.503 45.0533 354.947 50.4966 353.353 56.4452L333.226 131.56C331.632 137.509 324.196 139.501 319.842 135.146L264.854 80.1585C260.499 75.8038 262.491 68.3681 268.44 66.7742L343.555 46.6473Z" fill="#FFA43A"/>
<path d="M333.894 62.9502C336.868 62.1533 339.59 64.8749 338.793 67.8492L326 115.595C325.203 118.569 321.485 119.565 319.308 117.388L284.355 82.4358C282.178 80.2585 283.174 76.5406 286.148 75.7436L333.894 62.9502Z" fill="#FEE4B8"/>
<path d="M46.6473 56.4453C45.0533 50.4967 50.4966 45.0534 56.4452 46.6473L131.56 66.7742C137.509 68.3682 139.501 75.8039 135.146 80.1585L80.1585 135.146C75.8038 139.501 68.3681 137.509 66.7742 131.56L46.6473 56.4453Z" fill="#FFA43A"/>
<path d="M62.9502 67.8492C62.1532 64.8749 64.8749 62.1532 67.8491 62.9502L115.595 75.7436C118.569 76.5406 119.565 80.2584 117.388 82.4357L82.4357 117.388C80.2584 119.565 76.5405 118.569 75.7436 115.595L62.9502 67.8492Z" fill="#FEE4B8"/>
<line x1="252.05" y1="226.153" x2="369.695" y2="194.63" stroke="black" stroke-width="0.5"/>
<line x1="252.18" y1="255.528" x2="369.825" y2="287.05" stroke="black" stroke-width="0.5"/>
<line x1="252.192" y1="240.638" x2="373.987" y2="240.638" stroke="black" stroke-width="0.5"/>
<line x1="147.513" y1="256.01" x2="29.8684" y2="287.533" stroke="black" stroke-width="0.5"/>
<line x1="147.384" y1="226.636" x2="29.739" y2="195.113" stroke="black" stroke-width="0.5"/>
<line x1="147.371" y1="241.525" x2="25.5767" y2="241.525" stroke="black" stroke-width="0.5"/>
<path d="M203.207 237.589C201.668 240.256 197.819 240.256 196.279 237.589L187.386 222.186C185.846 219.519 187.771 216.186 190.85 216.186H208.637C211.716 216.186 213.64 219.519 212.101 222.186L203.207 237.589Z" fill="#D9D9D9"/>
<circle cx="142.5" cy="163.205" r="24.359" fill="#D9D9D9"/>
<circle cx="147.372" cy="166.859" r="17.0513" fill="black"/>
<circle cx="252.115" cy="163.205" r="24.359" fill="#D9D9D9"/>
<circle cx="247.243" cy="166.859" r="17.0513" fill="black"/>
</svg>
