<svg width="420" height="530" viewBox="0 0 420 530" fill="none" xmlns="http://www.w3.org/2000/svg">
<path d="M328.943 59.2126C301.994 32.2649 267.66 13.9135 230.282 6.47909C192.903 -0.955359 154.16 2.86105 118.95 17.4457C83.7409 32.0303 53.6466 56.728 32.4736 88.4159C11.3007 120.104 0 157.358 0 195.469C0 233.579 11.3007 270.834 32.4736 302.522C53.6466 334.21 83.7409 358.908 118.95 373.492C154.16 388.077 192.903 391.893 230.282 384.459C267.66 377.024 301.994 358.673 328.943 331.725C346.989 313.918 361.318 292.703 371.098 269.313C380.878 245.922 385.915 220.822 385.915 195.469C385.915 170.116 380.878 145.016 371.098 121.625C361.318 98.2347 346.989 77.0199 328.943 59.2126Z" fill="#A3DFF1"/>
<path d="M308.367 517.475V517.366C308.367 497.413 290.994 485.43 271.195 485.43H118.55C98.74 485.43 78.7766 497.457 78.7766 517.366V517.475V529.162H308.367V517.475Z" fill="#A3DFF1"/>
<path d="M183.262 411.659L182.332 517.343L204.197 517.536L205.127 411.852L183.262 411.659Z" fill="#A3DFF1"/>
<path d="M192.686 422.785C138.341 422.818 85.7877 403.352 44.5781 367.924C43.3099 366.831 41.6914 365.365 40.0406 363.835L19.4874 385.121L3.76538 369.946L39.4066 333.026L47.2786 340.602C47.2786 340.602 54.9312 347.938 58.8561 351.36C98.3022 385.248 149.132 402.916 201.092 400.801C253.053 398.686 302.278 376.945 338.839 339.964C375.401 302.982 396.578 253.511 398.099 201.53C399.62 149.549 381.372 98.9248 347.036 59.8685C344.095 56.5887 337.841 50.029 337.841 50.029L330.396 42.3759L372.258 0L387.816 15.3717L360.91 42.6054C361.85 43.6987 362.747 44.606 363.446 45.415C392.298 78.2511 411.071 118.709 417.515 161.942C423.96 205.176 417.803 249.35 399.783 289.173C381.762 328.997 352.642 362.78 315.911 386.475C279.18 410.171 236.396 422.774 192.686 422.774V422.785Z" fill="#A3DFF1"/>
<path d="M318 223.201C318 292.003 262.036 329.625 193 329.625C123.964 329.625 68 292.003 68 223.201C68 154.4 123.964 98.6249 193 98.6249C262.036 98.6249 318 154.4 318 223.201Z" fill="#FFA43A"/>
<path d="M308.682 98.9416C314.63 97.3477 320.074 102.791 318.48 108.74L303.238 165.623C301.644 171.571 294.208 173.564 289.854 169.209L248.212 127.568C243.858 123.213 245.85 115.777 251.799 114.183L308.682 98.9416Z" fill="#FFA43A"/>
<path d="M301.947 112.006C304.922 111.209 307.643 113.931 306.846 116.905L296.984 153.712C296.187 156.686 292.469 157.683 290.292 155.505L263.348 128.561C261.17 126.383 262.166 122.666 265.141 121.869L301.947 112.006Z" fill="#FEE4B8"/>
<path d="M67.9416 108.74C66.3477 102.791 71.791 97.3477 77.7396 98.9417L134.623 114.183C140.571 115.777 142.564 123.213 138.209 127.568L96.5677 169.209C92.213 173.564 84.7773 171.571 83.1834 165.623L67.9416 108.74Z" fill="#FFA43A"/>
<path d="M81.0064 116.905C80.2094 113.931 82.9311 111.209 85.9053 112.006L122.712 121.869C125.686 122.666 126.683 126.383 124.505 128.561L97.5608 155.505C95.3835 157.683 91.6656 156.686 90.8687 153.712L81.0064 116.905Z" fill="#FEE4B8"/>
<line x1="235.935" y1="245.64" x2="332.528" y2="219.759" stroke="black" stroke-width="0.5"/>
<line x1="236.065" y1="269.759" x2="332.657" y2="295.64" stroke="black" stroke-width="0.5"/>
<line x1="236.063" y1="257.532" x2="336.063" y2="257.532" stroke="black" stroke-width="0.5"/>
<line x1="150.128" y1="270.241" x2="53.5351" y2="296.123" stroke="black" stroke-width="0.5"/>
<line x1="149.998" y1="246.123" x2="53.4057" y2="220.241" stroke="black" stroke-width="0.5"/>
<line x1="150" y1="258.35" x2="49.9999" y2="258.35" stroke="black" stroke-width="0.5"/>
<path d="M196.464 254C194.924 256.667 191.075 256.667 189.536 254L183.474 243.5C181.934 240.833 183.859 237.5 186.938 237.5H199.062C202.141 237.5 204.066 240.833 202.526 243.5L196.464 254Z" fill="#D9D9D9"/>
<circle cx="146" cy="194" r="20" fill="#D9D9D9"/>
<circle cx="150" cy="197" r="14" fill="black"/>
<circle cx="236" cy="194" r="20" fill="#D9D9D9"/>
<circle cx="232" cy="197" r="14" fill="black"/>
</svg>
